HIERARCHY
ROOT Hips
{
	OFFSET -14.64140 90.27770 -84.91600
	CHANNELS 6 Xposition Yposition Zposition Zrotation Xrotation Yrotation
	JOINT Spine
	{
		OFFSET 0.00000 13.20850 -1.60436
		CHANNELS 3 Zrotation Xrotation Yrotation
		JOINT Spine1
		{
			OFFSET 0.00000 8.61716 0.00000
			CHANNELS 3 Zrotation Xrotation Yrotation
			JOINT Spine2
			{
				OFFSET 0.00000 8.61717 0.00000
				CHANNELS 3 Zrotation Xrotation Yrotation
				JOINT Spine3
				{
					OFFSET 0.00000 8.61717 0.00000
					CHANNELS 3 Zrotation Xrotation Yrotation
					JOINT Neck
					{
						OFFSET 0.00000 11.07920 1.10792
						CHANNELS 3 Zrotation Xrotation Yrotation
						JOINT Neck1
						{
							OFFSET 0.00000 7.08032 0.00000
							CHANNELS 3 Zrotation Xrotation Yrotation
							JOINT Head
							{
								OFFSET 0.00000 7.08031 0.00000
								CHANNELS 3 Zrotation Xrotation Yrotation
								End site
								{
									OFFSET 0.00000 0.00000 0.00000
								}
							}
						}
					}
					JOINT RightShoulder
					{
						OFFSET -0.01000 7.91373 5.19711
						CHANNELS 3 Zrotation Xrotation Yrotation
						JOINT RightArm
						{
							OFFSET -18.41580 0.00000 0.00000
							CHANNELS 3 Zrotation Xrotation Yrotation
							JOINT RightForeArm
							{
								OFFSET -29.11090 0.00000 0.00000
								CHANNELS 3 Zrotation Xrotation Yrotation
								JOINT RightHand
								{
									OFFSET -24.65040 0.00000 0.00000
									CHANNELS 3 Zrotation Xrotation Yrotation
									JOINT RightHandThumb1
									{
										OFFSET -5.35114 -0.85590 3.97906
										CHANNELS 3 Zrotation Xrotation Yrotation
										JOINT RightHandThumb2
										{
											OFFSET -4.52789 0.00000 0.00000
											CHANNELS 3 Zrotation Xrotation Yrotation
											JOINT RightHandThumb3
											{
												OFFSET -2.46976 0.00000 0.00000
												CHANNELS 3 Zrotation Xrotation Yrotation
												End site
												{
													OFFSET 0.00000 0.00000 0.00000
												}
											}
										}
									}
									JOINT RightHandIndex1
									{
										OFFSET -14.26970 0.00000 2.88139
										CHANNELS 3 Zrotation Xrotation Yrotation
										JOINT RightHandIndex2
										{
											OFFSET -5.48836 0.00000 0.00000
											CHANNELS 3 Zrotation Xrotation Yrotation
											JOINT RightHandIndex3
											{
												OFFSET -3.01859 0.00000 0.00000
												CHANNELS 3 Zrotation Xrotation Yrotation
												End site
												{
													OFFSET 0.00000 0.00000 0.00000
												}
											}
										}
									}
									JOINT RightHandMiddle1
									{
										OFFSET -14.26970 0.00000 -0.09147
										CHANNELS 3 Zrotation Xrotation Yrotation
										JOINT RightHandMiddle2
										{
											OFFSET -6.17441 0.00000 0.00000
											CHANNELS 3 Zrotation Xrotation Yrotation
											JOINT RightHandMiddle3
											{
												OFFSET -3.56743 0.00000 0.00000
												CHANNELS 3 Zrotation Xrotation Yrotation
												End site
												{
													OFFSET 0.00000 0.00000 0.00000
												}
											}
										}
									}
									JOINT RightHandRing1
									{
										OFFSET -12.69180 0.00000 -3.06433
										CHANNELS 3 Zrotation Xrotation Yrotation
										JOINT RightHandRing2
										{
											OFFSET -5.62556 0.00000 0.00000
											CHANNELS 3 Zrotation Xrotation Yrotation
											JOINT RightHandRing3
											{
												OFFSET -3.56744 0.00000 0.00000
												CHANNELS 3 Zrotation Xrotation Yrotation
												End site
												{
													OFFSET 0.00000 0.00000 0.00000
												}
											}
										}
									}
									JOINT RightHandPinky1
									{
										OFFSET -11.11390 0.00000 -6.03719
										CHANNELS 3 Zrotation Xrotation Yrotation
										JOINT RightHandPinky2
										{
											OFFSET -4.52789 0.00000 0.00000
											CHANNELS 3 Zrotation Xrotation Yrotation
											JOINT RightHandPinky3
											{
												OFFSET -2.46976 0.00000 0.00000
												CHANNELS 3 Zrotation Xrotation Yrotation
												End site
												{
													OFFSET 0.00000 0.00000 0.00000
												}
											}
										}
									}
								}
							}
						}
					}
					JOINT LeftShoulder
					{
						OFFSET 0.01000 7.91373 5.19711
						CHANNELS 3 Zrotation Xrotation Yrotation
						JOINT LeftArm
						{
							OFFSET 18.41580 0.00000 0.00000
							CHANNELS 3 Zrotation Xrotation Yrotation
							JOINT LeftForeArm
							{
								OFFSET 29.11090 0.00000 0.00000
								CHANNELS 3 Zrotation Xrotation Yrotation
								JOINT LeftHand
								{
									OFFSET 24.65040 0.00000 0.00000
									CHANNELS 3 Zrotation Xrotation Yrotation
									JOINT LeftHandThumb1
									{
										OFFSET 5.35114 -0.85590 3.97906
										CHANNELS 3 Zrotation Xrotation Yrotation
										JOINT LeftHandThumb2
										{
											OFFSET 4.52789 0.00000 0.00000
											CHANNELS 3 Zrotation Xrotation Yrotation
											JOINT LeftHandThumb3
											{
												OFFSET 2.46977 0.00000 0.00000
												CHANNELS 3 Zrotation Xrotation Yrotation
												End site
												{
													OFFSET 0.00000 0.00000 0.00000
												}
											}
										}
									}
									JOINT LeftHandIndex1
									{
										OFFSET 14.26970 0.00000 2.88139
										CHANNELS 3 Zrotation Xrotation Yrotation
										JOINT LeftHandIndex2
										{
											OFFSET 5.48836 0.00000 0.00000
											CHANNELS 3 Zrotation Xrotation Yrotation
											JOINT LeftHandIndex3
											{
												OFFSET 3.01859 0.00000 0.00000
												CHANNELS 3 Zrotation Xrotation Yrotation
												End site
												{
													OFFSET 0.00000 0.00000 0.00000
												}
											}
										}
									}
									JOINT LeftHandMiddle1
									{
										OFFSET 14.26970 0.00000 -0.09147
										CHANNELS 3 Zrotation Xrotation Yrotation
										JOINT LeftHandMiddle2
										{
											OFFSET 6.17440 0.00000 0.00000
											CHANNELS 3 Zrotation Xrotation Yrotation
											JOINT LeftHandMiddle3
											{
												OFFSET 3.56744 0.00000 0.00000
												CHANNELS 3 Zrotation Xrotation Yrotation
												End site
												{
													OFFSET 0.00000 0.00000 0.00000
												}
											}
										}
									}
									JOINT LeftHandRing1
									{
										OFFSET 12.69180 0.00000 -3.06433
										CHANNELS 3 Zrotation Xrotation Yrotation
										JOINT LeftHandRing2
										{
											OFFSET 5.62556 0.00000 0.00000
											CHANNELS 3 Zrotation Xrotation Yrotation
											JOINT LeftHandRing3
											{
												OFFSET 3.56744 0.00000 0.00000
												CHANNELS 3 Zrotation Xrotation Yrotation
												End site
												{
													OFFSET 0.00000 0.00000 0.00000
												}
											}
										}
									}
									JOINT LeftHandPinky1
									{
										OFFSET 11.11390 0.00000 -6.03719
										CHANNELS 3 Zrotation Xrotation Yrotation
										JOINT LeftHandPinky2
										{
											OFFSET 4.52789 0.00000 0.00000
											CHANNELS 3 Zrotation Xrotation Yrotation
											JOINT LeftHandPinky3
											{
												OFFSET 2.46976 0.00000 0.00000
												CHANNELS 3 Zrotation Xrotation Yrotation
												End site
												{
													OFFSET 0.00000 0.00000 0.00000
												}
											}
										}
									}
								}
							}
						}
					}
					JOINT pCube4
					{
						OFFSET 0.00000 10.91090 1.10792
						CHANNELS 3 Zrotation Xrotation Yrotation
						End site
						{
							OFFSET 0.00000 0.00000 0.00000
						}
					}
				}
			}
		}
	}
	JOINT RightUpLeg
	{
		OFFSET -9.98441 0.00000 0.00000
		CHANNELS 3 Zrotation Xrotation Yrotation
		JOINT RightLeg
		{
			OFFSET 0.00000 -42.11790 0.00000
			CHANNELS 3 Zrotation Xrotation Yrotation
			JOINT RightFoot
			{
				OFFSET 0.00000 -45.00020 -0.00001
				CHANNELS 3 Zrotation Xrotation Yrotation
				JOINT RightForeFoot
				{
					OFFSET 0.00000 -3.74820 0.00000
					CHANNELS 3 Zrotation Xrotation Yrotation
					JOINT RightToeBase
					{
						OFFSET 0.00000 0.06325 14.43120
						CHANNELS 3 Zrotation Xrotation Yrotation
						End site
						{
							OFFSET 0.00000 0.00000 0.00000
						}
					}
				}
			}
		}
	}
	JOINT LeftUpLeg
	{
		OFFSET 9.98441 0.00000 0.00000
		CHANNELS 3 Zrotation Xrotation Yrotation
		JOINT LeftLeg
		{
			OFFSET 0.00000 -42.11800 0.00000
			CHANNELS 3 Zrotation Xrotation Yrotation
			JOINT LeftFoot
			{
				OFFSET 0.00000 -45.00070 0.00000
				CHANNELS 3 Zrotation Xrotation Yrotation
				JOINT LeftForeFoot
				{
					OFFSET 0.00000 -3.74824 0.00000
					CHANNELS 3 Zrotation Xrotation Yrotation
					JOINT LeftToeBase
					{
						OFFSET 0.00000 0.06325 14.43110
						CHANNELS 3 Zrotation Xrotation Yrotation
						End site
						{
							OFFSET 0.00000 0.00000 0.00000
						}
					}
				}
			}
		}
	}
}
MOTION
Frames: 4
Frame Time: 0.050000
0.012386102663040577 0.0020966154072823507 0.045752817831661845 -0.023651918467697094 0.005825995016672868 -0.005859076582371387 5.9375841121058475 5.195506678394142 -2.280036340403939 -0.7614075478073966 3.6239389224468073 0.36219661856112745 -0.2625778534869736 -0.9786710471544267 -0.214853485798821 -1.2977027024967234 -0.5285686005026579 -0.2848197548379381 -1.3822454268942528 13.111528652870891 2.5032127156437807 0.2539298830217272 -1.1641988852196028 8.017477398380173 -0.4167559756524962 -18.37421270698916 0.6587078098612579 -10.813683640928733 3.9291922180698418 -18.35968496175447 85.12677247017119 -8.360203327925383 -0.2893796569156501 28.14233156107271 6.085368914560338 82.66332112647704 9.155052731224032 -0.5098256065519525 -4.571570803068548 4.501553686667268 -0.13228738504994506 -1.5521686716284882 -0.04163364633202263 0.004102834202597058 -56.22449045233954 0.02249835207674797 0.005694476030084894 -56.23011234246754 -38.796288380633605 0.04526585704165621 -0.007587178617703726 -0.012622943098752469 -0.04323136960695723 -0.002420267993085307 -0.01290124486818951 -0.041762448357534336 -0.04405289430867295 -36.677630861027886 -0.03278950652985856 0.026690216680419585 -0.032518524926541136 0.03602473704750368 -0.01690715147358925 -0.00011588805963586818 -0.013348280895151644 -0.03762541848801989 -19.79879792124333 0.012141646957115355 0.005348232830865447 -0.049265588876753044 -0.030785753399088213 0.00205491338282279 0.018268262114546505 -0.029917805706629184 0.01831206668107159 24.04545851806573 -0.0021333848781758245 0.01842414467664522 28.89357223862115 -0.005816462895763993 -0.022494740989071497 28.887665348303457 -0.027369726824378538 0.048753512187621285 13.7088716719528 3.1613482018875874 14.834941116280445 -77.51925093757536 12.835681358740048 -19.828601745144542 -28.345317754201957 15.719205539469142 -70.35485562487533 -24.621906100796025 -4.108881713065022 3.3589073053828233 -0.48041428200205244 0.0844633448236876 -8.101264268738234 -0.02592001198408246 -0.0338536069676359 44.553184885475254 -0.006498051104854975 0.03816526243799481 44.58503707861118 12.456117184401142 -0.02669479091615091 -0.033276973213241225 -0.022486020312555727 0.00957521127702498 0.02685435477718278 -0.01142054992362198 0.008207791941651516 -0.012642279227330314 11.09037061605874 -0.00951853398318451 0.027496368356881726 0.03621350296076218 -0.019083221491580992 -0.0077970468899892405 0.0026827101153652244 0.03221326377618716 0.006750023948311498 4.792435757415364 -0.030687049333442008 -0.02996129192248702 0.014003839126858831 -0.004321789320294385 -0.01534968037655886 -0.03372457953826264 -0.03509692234141481 -0.021773430836524568 -5.581713795247504 0.01155213848316531 -0.034096221423592234 -6.728537528389403 0.027444217844416252 0.012499749522695029 -6.703331391237656 -0.00399471868780162 -0.005174441678365847 0.01352870873188989 -0.046472142766007724 0.024894913734836342 8.059191930540294 3.5263472315494937 -19.23555326426394 0.0290326669201798 10.354097118438615 -0.03253433618450388 -5.582857688002728 -15.640909109964005 3.1601404202651513 0.012465404571086346 0.007428374963902164 -0.04762332521419213 -0.012613057764684237 4.688786338852114 -0.047527462848144686 12.43287769669813 -8.192301433373135 6.90916251225871 0.00535374304884754 46.41392563873256 0.045970869888659366 -4.352054332818693 -14.705585341142369 -3.8718403097133627 0.03704264390643541 -0.023929223382786472 -0.029532697053419918 -0.007916134164689934 -10.762225239710135 0.018250909911290355 
0.028274877469912748 0.040289073097959476 -0.014367149357465917 0.01603387407724187 -0.01853864979351849 0.0421631742556981 5.7374358106440235 5.274200352296156 -2.2549374769975943 -0.744248464557332 3.6293847201618084 0.3621449633280317 -0.30711070793454004 -0.9298008700009942 -0.31172497743968436 -1.2204482412287045 -0.45069913567928105 -0.3038221944348992 -1.3537611946238561 12.921080280008002 2.2114478880047037 0.29344235387728423 -1.1643358294274742 7.377060181292712 -0.38003861874329803 -18.34649100304599 0.5975641706497079 -10.525377818204241 3.8462416589240465 -18.215788088116597 85.15322477162877 -7.854426356857825 -0.9351330450217711 27.85541211717393 6.9620036654868285 81.51719627095474 8.868491387706744 -0.4701007048591756 -4.469634758540709 4.536895783087309 -0.07767231074883649 -1.577189570582213 -0.008376057833225897 -0.01022546432295776 -56.265946889966386 0.0023348954927401478 -0.03961287211817449 -56.25245770099286 -38.79301206526814 0.042147725491854054 0.017343013657857634 -0.0016841401998278988 -0.005532463159003211 -0.036281809703600364 -0.0012430591332387938 -0.016663920684967075 0.012304553040977006 -36.71264804231002 0.043303329472720975 0.02956181811688067 0.009785379964027573 -0.04594180885537158 0.04506550438577148 -0.03640412486748393 0.04829004692038617 -0.04397463951558184 -19.755913259225252 -0.03368780630582425 -0.029460665263890098 -0.0011613653582341122 -0.0036006726222184136 0.00890320437994627 0.04226319623083799 0.0307991979414284 0.004534872279122934 24.06680717823822 -0.007535289415576868 0.0026611436734333433 28.856325198700556 -0.04975362190526886 -0.016408678343981253 28.906368892222517 0.03031336523824706 0.037794339588825034 13.293887013455342 3.096855337584858 14.67007627872304 -77.22026373158124 14.032598483492436 -19.348521931861256 -26.10031357693434 16.68391788784475 -68.34075533268701 -24.72646221299644 -4.178355773396329 3.5632496999978627 -0.44389492128433083 0.07265614493902421 -8.127939176980272 0.02025952331517741 0.03726003857574802 44.56413758703913 -0.0018108789549535983 -0.024068275650976374 44.5217368144628 12.50558980515223 -0.018404757821504455 0.011244819267884695 0.02091884856791988 -0.029865523107720407 0.04832575430944921 -0.03586570295390016 0.03610390060843152 0.0025021118332830654 11.115044384189831 0.045225437607249876 0.0304045527303944 0.0007356004702412783 0.009456115293241904 0.04815072791260294 0.012647810082267766 0.024391209037479045 -0.02908055855596647 4.779012384112798 -0.0032880965188470776 0.033858672154008736 0.007472113231506968 0.04563299825208217 0.007877589539212625 -0.01872202670712153 0.00037171416690854334 0.039280349312606246 -5.647351812186126 -0.027197336897322708 -0.025824043427713203 -6.73139034724074 -0.03407653749478545 -0.03153603851209652 -6.68750835717603 -0.009125412089509769 -0.0104700247663703 0.0026935313807032253 0.04436934086378234 -0.025845361392097983 8.043974765366816 3.453111523430739 -19.252012463526977 -0.03823726639454219 10.392053160672106 0.01564981939690848 -5.59367974182956 -15.609986452284724 3.178184065749421 -0.030002476683522152 0.04595488600213581 0.026500100187011145 -0.003662531183724297 4.694473997247134 -0.026794767220555224 12.425247471185333 -8.278419936531687 6.877593082991811 0.013638917359165925 46.38511349410951 0.05050609124879694 -4.325776908805675 -14.753122245378364 -3.85333225514801 0.04108393043901186 -0.02305235081067556 -0.024658126077743793 -0.0014926257669884858 -10.737654241517191 0.013851156530511756 
0.0299792151558958 -0.008140194120942476 -0.02313620861501782 0.030309279942062468 0.00558323836589307 -0.00707242043113345 5.468890911537757 5.269951672965931 -2.174365309948234 -0.7905542832438814 3.633712966070877 0.31612116096667064 -0.3952038347260636 -0.8518092020837174 -0.2935065079878027 -1.143981425103054 -0.4550395778833551 -0.3469422845947543 -1.2376116087796172 12.603070789252094 1.9307864173402838 0.2652611337803358 -1.2398057954872332 6.5621333563612065 -0.23037569859519444 -18.413434554019418 0.5631302340510709 -10.192473479110415 3.8259617237399843 -18.06337940113227 85.05666821843619 -7.133807266072782 -1.5849829451762696 26.583070719626264 8.310880328948517 80.28108918829795 8.565170561026553 -0.44910940749582795 -4.345585973348921 4.54673624526653 -0.0896491855961272 -1.5661115570735977 -0.04447271124579888 -0.03628794253892561 -56.20832671993951 0.0034555972357406656 -0.01925179193510711 -56.24589790508854 -38.78299036123164 -0.023329889752047046 0.006530098919418113 0.013629061307888948 -0.0046517860224312615 0.021909882785754876 0.007851537377831055 0.031352293833549066 0.04043210297780719 -36.71256165716855 -0.04922852095757843 0.0489270059379831 -0.04118901094574692 0.030191381191767928 -0.04410220109619969 -0.04045479925432508 0.019980161883733583 -0.022113407157285873 -19.80068563889586 0.01687090995325377 0.009079150740173682 -0.004987164522180263 0.04971070126879523 -0.01863118922490244 0.004800985422232221 0.013539787843644046 0.01764614663260822 24.032014406885708 -0.003932937726193774 -0.021531341097039088 28.88237012890156 0.019767493239510336 0.013731976101560805 28.865046222814474 -0.0070304980033232215 -0.0009921789064274112 12.777128059488904 2.9787463770576283 14.465967427029858 -76.63983817037085 14.941132387999929 -18.401710622382634 -22.50027564555464 17.53181903694856 -65.12681127631276 -24.681199240180657 -3.9846507919110135 3.563301958532285 -0.45543906517821175 0.06875333460444562 -8.147584586545326 0.03486862433712985 -0.031089036096186257 44.54782512984054 0.04512524497731484 -0.023133975747653995 44.61268643020556 12.430145201642675 0.009369586024461281 0.04995372952986718 0.02392087111659336 -0.013322400174842442 0.044692812972786156 0.02050269746522544 -0.015465184250429063 0.018520339671744646 11.125827588379122 0.03359505563016175 -0.025376550221167204 -0.03235045364895968 0.004596669332282445 -0.03353558198503341 -0.021497339855583712 0.012620323027654208 0.019843088537914173 4.779599559281614 -0.02046651014898185 -0.02428035201154965 0.02964258065642527 0.006184477146260535 0.013235882786463893 -0.025440854894625515 0.04016840520265232 0.003712428570499013 -5.617776045375633 0.004310136465419495 0.021580333055278258 -6.717653978119203 -0.039513142399797335 -0.04210758871401444 -6.69413682796274 -0.0017247783193385068 0.04301653466932403 -0.02055383206366744 0.01745399777001454 0.0038021762646106992 8.03007823028527 3.4737403240170623 -19.226794045033234 0.0019857779282387612 10.440872982282674 0.007150199511149518 -5.643179178461925 -15.696876296614349 3.1747015386811315 0.01711402320199759 -0.0011637380164837812 0.011085012731180122 0.010260014563495819 4.672252760076916 -0.00861906219847777 12.47637705488453 -8.219394262160234 6.8860006082707885 -0.019929190525950817 46.36149593868934 0.021469354041508043 -4.353067976626376 -14.742865609048927 -3.8752456544351546 -0.02560626815128781 -0.03957332992747285 0.01374771824199735 -0.028581169487053137 -10.776169182015614 -0.03943863031084616 
-0.035106581127819184 0.012914804353852009 -0.03072751062326322 0.03502384660267192 0.044393738474718704 0.016735934505696715 5.163834251308502 5.380815947436857 -2.1370253843065345 -0.7635935442068614 3.5890311977175036 0.370066658250893 -0.3450144703437615 -0.7882609175671965 -0.3320118313629241 -1.0875323383013078 -0.43645409532654433 -0.3651870263740881 -1.1581129786725863 12.40823943928564 1.7227921407309044 0.1840168611258669 -1.3241640230889624 5.904012201525791 -0.21201636514860567 -18.487619722795408 0.44517047117693676 -9.863435383840807 3.6911329377599627 -17.923129990927002 84.74254892114314 -5.944722486282615 -2.2934425217904466 24.00627576579261 9.83926451371145 77.88103133640658 8.495819504802501 -0.45822324596390135 -4.024532179093909 4.537720216869442 -0.09508599424475464 -1.5619476784094917 0.024499045530414692 -0.03910096800242656 -56.229199571369826 0.017220315317001657 0.030108382148733487 -56.25408125233771 -38.819150716077736 0.028722586857564295 0.02578934983610545 -0.04246341760070664 -0.00451709171008782 0.02363884633553407 0.003310173481901837 0.00830108622026219 -0.033100166599552845 -36.68224012866389 0.02044506068470074 -0.01117417390220817 0.017863526562958393 -0.006616361017021799 0.020267635030020045 0.04728798834566863 0.01366142844026086 0.026727316301716146 -19.77088044673644 -0.049867380533787795 -0.038290765122136965 -0.0027421861407073206 0.02505950799443637 -0.0058164940982198725 0.02157481375356747 -0.010486204537424161 -0.013594488656319202 24.041638111557575 0.046253847695292644 0.0023186686257578755 28.89114935643622 0.03498986147102809 -0.00554620921659965 28.81597368678035 0.006407944830502445 -0.011239520638397402 12.259728617159247 2.9090375338260754 14.400216846422886 -75.74726001708196 15.878851616657494 -17.789314715788972 -18.37808682045223 18.670136326775552 -61.59658984588485 -24.61216247829424 -3.7854332558508057 3.788217380224549 -0.4895328354772449 0.07532847827247637 -8.135526371038887 0.037479964743628164 -0.03492544823453179 44.59538459667795 0.0192817983803256 0.006879643755389767 44.583270769680546 12.439505144877055 0.031321195450094076 0.0047517532482881444 0.002846872363916353 -0.034483704669762985 0.0006532944998334732 -0.0046398399585780205 0.03751311489645672 0.04055727514011901 11.056577169199356 -0.03950489422272256 -0.008963531217475128 0.010705432774915632 0.027631849649095503 0.02730586621199771 -0.012093492356688378 -0.038546605904864625 -0.009851974238902767 4.772497621949523 -0.04256167059257931 -0.006862660699669574 -0.030535865280948142 0.04298539725018143 -0.019499775954218743 0.005621451572312333 -0.004937033221847923 -0.02951207600899226 -5.567707802643365 0.04927131591676358 -0.02698000072515663 -6.711261408013199 -0.029764259152151754 -0.008211999534975912 -6.737681863246346 -0.0024329421377390355 -0.008305892258496922 0.022394689985445637 -0.022826873520275872 -0.018894898902540862 8.064799388940052 3.525024336784048 -19.179689013882427 -0.007080582748040292 10.42808721369232 0.03682151477249618 -5.640280900864509 -15.682540714715083 3.1455588993935764 0.012102199352864986 0.0039270830190337265 0.04731995222059022 -0.03775643160448536 4.713591421452907 -0.022309561921373216 12.479485664229601 -8.211377128236597 6.835213098923086 -0.020394316599014844 46.404192992889236 0.01442389631543217 -4.349681124018576 -14.743363278667315 -3.818624895150656 -0.04548933843087069 0.012614753419824494 -0.02732491953869331 0.016750129925425787 -10.703801372613494 0.03995937329011079 
